# xmcd CD database file
# Copyright (C) 1993-1998 Ti Kan
#
# Track frame offsets:
#	182
#	14712
#	30560
#	43220
#	61197
#	77925
#	92042
#	107865
#	122357
#	139285
#	156700
#	169040
#	181952
#	197105
#	212217
#	231842
#
# Disc length: 3295 seconds
#
# Revision: 1
# Processed by: cddbd v1.4b41PL1 Copyright (c) Steve Scherf et al.
# Submitted via: QuintessentialCD v1.1 (c) 1998 Paul Quinn
#
DISCID=e70cdd10
DTITLE=Pam Tillis - All Of These Hits
DYEAR=1900
DGENRE=
TTITLE0=Don't Tell Me What To Do
TTITLE1=One Of Those Things
TTITLE2=Put Yourself In My Place
TTITLE3=Maybe It Was Memphis
TTITLE4=Blue Rose Is
TTITLE5=Shake The Sugar Tree
TTITLE6=Let That Pony Run
TTITLE7=Cleopatra, Queen Of Denial
TTITLE8=Do You Know Where Your Man Is
TTITLE9=Spilled Perfume
TTITLE10=When You Walk In The Room
TTITLE11=Mi Vida Loca (My Crazy Life)
TTITLE12=In Between Dances
TTITLE13=Deep Down
TTITLE14=The River And The Highway
TTITLE15=It's Lonely Out There
EXTD=
EXTT0=
EXTT1=
EXTT2=
EXTT3=
EXTT4=
EXTT5=
EXTT6=
EXTT7=
EXTT8=
EXTT9=
EXTT10=
EXTT11=
EXTT12=
EXTT13=
EXTT14=
EXTT15=
PLAYORDER=
